# xmcd
#
# Track frame offsets:
#	150
#	18980
#	36912
#	51484
#	63864
#	81199
#	95185
#	108697
#	124168
#	139183
#
# Disc length: 2101 seconds
#
# Revision: 1
# Processed by: cddbd v1.5.2PL0 Copyright (c) Steve Scherf et al.
# Submitted via: audiograbber 1.83.01
#
DISCID=9008330a
DTITLE=Dierks Bentley - Don't Leave Me In Love
DYEAR=2001
DGENRE=Country
TTITLE0=Always Be Me
TTITLE1=Don't Leave Me In Love
TTITLE2=Midnight Radio
TTITLE3=Bartenders, Barstools And Barmaids
TTITLE4=Walking Papers
TTITLE5=Whiskey Tears
TTITLE6=Living Single
TTITLE7=Why Do You Love Me
TTITLE8=Not Through Loving You
TTITLE9=Home Is Where The Hurt Is
EXTD=
EXTT0=
EXTT1=
EXTT2=
EXTT3=
EXTT4=
EXTT5=
EXTT6=
EXTT7=
EXTT8=
EXTT9=
PLAYORDER=
